<?xml version="1.0" encoding="UTF-8"?>
<svg xmlns="http://www.w3.org/2000/svg" xmlns:xlink="http://www.w3.org/1999/xlink" width="70px" height="35px" viewBox="17.5 0 35 35" version="1.1">
<g id="surface3">
<path style=" stroke:none;fill-rule:nonzero;fill:rgb(0%,0%,0%);fill-opacity:1;" d="M 33.117188 9.117188 L 1.949219 9.117188 C 2.359375 8.316406 2.816406 7.554688 3.324219 6.828125 L 10.179688 6.828125 L 10.179688 4.503906 L 5.257812 4.503906 C 6.085938 3.664062 6.996094 2.898438 7.988281 2.214844 L 10.179688 2.214844 L 10.179688 0.914062 C 10.910156 0.558594 11.652344 0.253906 12.40625 0 L 12.40625 2.214844 L 22.660156 2.214844 L 22.660156 0 C 23.414062 0.253906 24.15625 0.558594 24.886719 0.914062 L 24.886719 2.214844 L 27.078125 2.214844 C 28.070312 2.898438 28.980469 3.664062 29.808594 4.503906 L 24.886719 4.503906 L 24.886719 6.828125 L 31.742188 6.828125 C 32.25 7.554688 32.707031 8.316406 33.117188 9.117188 Z M 35.066406 17.1875 C 35.066406 17.835938 35.027344 18.5 34.953125 19.171875 L 24.886719 19.171875 L 24.886719 21.710938 L 34.472656 21.710938 C 34.273438 22.472656 34.011719 23.234375 33.691406 24 L 24.886719 24 L 24.886719 26.535156 L 32.464844 26.535156 C 31.03125 28.914062 29.160156 30.859375 26.855469 32.375 C 24.492188 33.925781 21.941406 34.839844 19.203125 35.121094 L 19.203125 26.535156 L 22.660156 26.535156 L 22.660156 24 L 12.40625 24 L 12.40625 26.535156 L 15.863281 26.535156 L 15.863281 35.121094 C 13.125 34.839844 10.574219 33.925781 8.210938 32.375 C 5.90625 30.859375 4.035156 28.914062 2.601562 26.535156 L 10.179688 26.535156 L 10.179688 24 L 1.375 24 C 1.050781 23.234375 0.792969 22.472656 0.59375 21.710938 L 10.179688 21.710938 L 10.179688 19.171875 L 0.113281 19.171875 C 0.0390625 18.5 0 17.835938 0 17.1875 C 0 15.320312 0.277344 13.507812 0.835938 11.75 L 15.863281 11.75 L 15.863281 19.171875 L 12.40625 19.171875 L 12.40625 21.710938 L 22.660156 21.710938 L 22.660156 19.171875 L 19.203125 19.171875 L 19.203125 11.75 L 34.230469 11.75 C 34.789062 13.507812 35.066406 15.320312 35.066406 17.1875 Z M 32.835938 16.882812 C 32.824219 15.929688 32.71875 14.980469 32.523438 14.039062 L 21.433594 14.039062 L 21.433594 16.882812 Z M 22.660156 6.828125 L 22.660156 4.503906 L 12.40625 4.503906 L 12.40625 6.828125 Z M 27.730469 28.824219 L 21.433594 28.824219 L 21.433594 32.375 C 23.785156 31.710938 25.882812 30.53125 27.730469 28.824219 Z M 13.632812 16.882812 L 13.632812 14.039062 L 2.542969 14.039062 C 2.347656 14.980469 2.242188 15.929688 2.230469 16.882812 Z M 13.632812 32.375 L 13.632812 28.824219 L 7.335938 28.824219 C 9.179688 30.53125 11.28125 31.710938 13.632812 32.375 Z M 13.632812 32.375 "/>
</g>
</svg>
