<?xml version="1.0" encoding="UTF-8" standalone="no"?>
<svg xmlns="http://www.w3.org/2000/svg" width="400%" height="400%" viewbox="0 0 265.5 258.89059" stroke="#000" stroke-linecap="square" stroke-miterlimit="10" color-interpolation="auto" font-family="Dialog" font-size="12" font-weight="400">
  <path stroke="none" d="M250.7344 67.2188H14.7656q4.6406-8.8594 10.4063-16.875h51.8906V33.1875H39.7969q9.4219-9.2812 20.6719-16.875h16.5937V6.75Q85.3594 2.8125 93.9375 0v16.3125h77.625V0q8.5781 2.8125 16.875 6.75v9.5625h16.5937q11.25 7.5938 20.6719 16.875h-37.2656v17.1563h51.8906q5.7657 8.0156 10.4063 16.875zM265.5 126.7032q0 7.1718-.8438 14.625h-76.2187v18.7031H261q-2.25 8.4375-5.9062 16.875h-66.6563v18.7031h57.375q-16.3125 26.2969-42.4687 43.0312-26.8594 17.1563-57.9376 20.25v-63.2812h26.1563v-18.7031h-77.625v18.7031h26.1563v63.2812q-31.0782-3.0937-57.9376-20.25Q36 221.9063 19.6875 195.6094h57.375v-18.7031H10.4062Q6.75 168.4688 4.5 160.0313h72.5625v-18.7031H.8438Q0 133.875 0 126.7032q0-20.6719 6.3281-40.0782h113.7657v54.7032H93.9375v18.7031h77.625v-18.7031h-26.1563V86.625h113.7657q6.3281 19.4063 6.3281 40.0782zm-16.875-2.25q-.1406-10.5469-2.3906-20.9532h-83.9532v20.9532zm-77.0625-74.1094V33.1875h-77.625v17.1563zm38.3906 162.1406h-47.6719v26.1562q26.7188-7.3124 47.6719-26.1562Zm-106.7343-88.0312V103.5H19.2656q-2.25 10.4063-2.3906 20.9532zm0 114.1874v-26.1562H55.5469q20.9531 18.8438 47.6719 26.1562z"/>
</svg>
